# xmcd CD database file
#
# Track frame offsets:
#	150
#	13144
#	24505
#	37045
#	51596
#	66112
#	81688
#	93511
#	104368
#	114674
#	126879
#	138605
#	151133
#	159664
#	172336
#	184388
#	194748
#	203448
#	218606
#	230161
#
# Disc length: 3194 seconds
#
# Revision: 0
# Processed by: cddbd v1.5.2PL0 Copyright (c) Steve Scherf et al.
# Submitted via: CDex 1.77
#
DISCID=330c7814
DTITLE=Eartha Kitt - The Essential Recordings - Disk 2
DYEAR=1900
DGENRE=Jazz
TTITLE0=Just An Old Fashioned Girl
TTITLE1=If I Can't Take It With Me (When I Go)
TTITLE2=St. Louis Blues
TTITLE3=Careless Love
TTITLE4=Beale Street Blues
TTITLE5=The Memphis Blues
TTITLE6=Yellow Bird
TTITLE7=Mack The Knife
TTITLE8=I'd Rather Be Burned As A Witch
TTITLE9=Shango
TTITLE10=A Lady Loves
TTITLE11=Good Little Girls
TTITLE12=Diamonds Are A Girl's Best Friend
TTITLE13=Lola Lola
TTITLE14=Love For Sale
TTITLE15=Whatever Lola Wants Lola Gets
TTITLE16=Never On A Sunday
TTITLE17=All I Wall Is All There Is And Then Some
TTITLE18=Do It Again
TTITLE19=Always True To You In My Fashion
EXTD=
EXTT0=
EXTT1=
EXTT2=
EXTT3=
EXTT4=
EXTT5=
EXTT6=
EXTT7=
EXTT8=
EXTT9=
EXTT10=
EXTT11=
EXTT12=
EXTT13=
EXTT14=
EXTT15=
EXTT16=
EXTT17=
EXTT18=
EXTT19=
PLAYORDER=
